<?xml version="1.0" encoding="utf-8"?>
<!-- Generator: Adobe Illustrator 27.9.0, SVG Export Plug-In . SVG Version: 6.00 Build 0)  -->
<svg version="1.1" id="レイヤー_1" xmlns="http://www.w3.org/2000/svg" xmlns:xlink="http://www.w3.org/1999/xlink" x="0px"
	 y="0px" viewBox="0 0 460 121" style="enable-background:new 0 0 460 121;" xml:space="preserve">
<style type="text/css">
	.st0{fill:none;stroke:#FFFFFF;stroke-width:4;}
	.st1{fill:none;stroke:#FFFFFF;stroke-width:6;}
</style>
<g>
	<g>
		<g>
			<path class="st0" d="M29.86,76.96c5.58-4.41,15.48-23.49,16.11-38.52c0.09-1.44,0.81-2.25,2.07-2.25c1.89,0,7.92,1.26,7.92,3.51
				c0,11.7-8.01,28.89-14.22,39.15l14.22,19.62c1.35,1.89,2.16,2.7,2.16,4.05c0,1.08-0.99,2.25-2.61,2.25h-5.85
				c-1.17,0-2.52-0.45-3.42-1.8c-1.26-1.89-10.8-13.95-12.33-16.29c-0.18-0.27-0.54-0.27-0.81-0.09l-2.52,1.62
				c-0.45,0.27-0.72,0.54-0.72,0.99v13.95c0,1.17-0.45,1.62-1.71,1.62h-7.11c-1.08,0-1.62-0.54-1.62-1.62V88.39
				c-0.09-0.9-2.16-4.32-2.16-6.3c0-1.62,1.71-2.07,2.16-2.34V38.63c0-1.08,0.54-1.62,1.62-1.62h7.11c1.26,0,1.71,0.45,1.71,1.62
				V76.96z M36.07,78.58c2.43-2.79,4.59-6.03,6.75-10.08c4.77-8.73,8.1-19.35,8.91-27.27c0-0.27-0.18-0.45-0.45-0.54l-1.35-0.36
				c-0.27,0-0.45,0.18-0.45,0.45c-0.81,7.65-4.05,18.18-8.64,26.64c-4.5,8.28-8.46,13.14-15.21,17.19V41.15
				c0-0.27-0.18-0.45-0.45-0.45h-1.35c-0.27,0-0.45,0.18-0.45,0.45v59.4c0,0.18,0.18,0.45,0.45,0.45h1.35
				c0.27,0,0.45-0.27,0.45-0.45V87.22c3.69-2.07,6.3-4.32,8.91-7.02l15.12,20.61c0.18,0.18,0.45,0.18,0.72,0.18h1.44
				c0.18,0,0.36-0.18,0.36-0.36c0-0.09-0.09-0.27-0.18-0.36L36.07,78.58z"/>
			<path class="st0" d="M63.88,83.35c-1.08-1.8-2.97-3.42-2.97-5.49c0-1.53,1.08-2.25,1.98-2.79c0.09-0.09,0.18-0.18,0.18-0.63
				c0-17.37,4.23-38.25,21.69-38.25c8.1,0,13.68,6.75,13.68,14.58c0,1.89-4.95,5.13-7.56,5.13c-1.17,0-2.25-0.72-2.25-2.34
				c0-4.14-1.62-7.92-4.59-7.92c-8.64,0-10.53,18.81-10.53,27.63c0,0.54,0.36,0.9,1.08,0.9h12.24c2.43,0,2.61,1.62,2.61,2.16
				c0,1.8-3.96,7.29-5.49,7.29h-8.91c-0.36,0-0.45,0.27-0.45,0.72c0,4.86,3.51,11.79,8.73,11.79c3.96,0,5.49-3.33,6.66-5.85
				c0.9-1.71,1.44-3.06,2.79-3.06c1.98,0,6.39,2.43,6.39,4.68c0,2.97-5.22,13.68-15.39,13.68C71.71,105.58,65.86,95.5,63.88,83.35z
				 M84.94,79.75c0.27,0,0.45-0.18,0.45-0.45v-1.35c0-0.27-0.18-0.45-0.45-0.45H69.46c0,0-0.18-2.25-0.18-4.23
				c0-14.58,5.58-31.32,15.12-31.32c4.77,0,7.83,4.95,8.01,9.72c0,0.27,0.18,0.45,0.45,0.45l1.35-0.54
				c0.27-0.09,0.45-0.18,0.45-0.45c-0.18-6.12-4.23-11.43-10.26-11.43c-11.25,0-17.37,17.73-17.37,33.57
				c0,12.78,4.14,28.44,16.83,28.44c5.31,0,8.64-3.78,11.16-8.37c0.09-0.09,0.18-0.63-0.18-0.81l-1.17-0.63
				c-0.27-0.09-0.54,0-0.63,0.18c-2.07,3.87-4.86,7.38-9.18,7.38c-9.09,0-13.05-9.9-14.22-19.71H84.94z"/>
			<path class="st0" d="M145.69,102.43c0,1.08-0.63,2.34-2.52,2.34h-2.97c-1.08,0-2.7-0.45-3.42-1.89l-20.7-40.32
				c-0.09-0.18-0.18-0.27-0.27-0.27c-0.18,0-0.18,0.18-0.18,0.36v40.5c0,1.17-0.45,1.62-1.71,1.62h-6.39
				c-1.08,0-1.62-0.54-1.62-1.62V39.44c0-1.44,0.99-2.43,2.52-2.43h2.97c1.44,0,2.88,0.72,3.51,1.98l20.61,40.41
				c0.09,0.18,0.27,0.18,0.27,0.18c0.18,0,0.18-0.18,0.18-0.45v-40.5c0-1.17,0.45-1.62,1.71-1.62h6.39c1.08,0,1.62,0.54,1.62,1.62
				V102.43z M110.14,41.06c-0.36,0-0.63,0.18-0.63,0.54v58.86c0,0.27,0.18,0.45,0.45,0.45h1.35c0.27,0,0.45-0.18,0.45-0.45V46.28
				l27.99,54.72c0,0,0.09,0.36,1.08,0.36c1.08,0,1.08-0.36,1.08-0.36V41.33c0-0.27-0.18-0.45-0.45-0.45h-1.35
				c-0.27,0-0.45,0.18-0.45,0.45v54.54l-27.9-54.45l-0.18-0.36H110.14z"/>
			<path class="st0" d="M166.21,76.96c5.58-4.41,15.48-23.49,16.11-38.52c0.09-1.44,0.81-2.25,2.07-2.25c1.89,0,7.92,1.26,7.92,3.51
				c0,11.7-8.01,28.89-14.22,39.15l14.22,19.62c1.35,1.89,2.16,2.7,2.16,4.05c0,1.08-0.99,2.25-2.61,2.25h-5.85
				c-1.17,0-2.52-0.45-3.42-1.8c-1.26-1.89-10.8-13.95-12.33-16.29c-0.18-0.27-0.54-0.27-0.81-0.09l-2.52,1.62
				c-0.45,0.27-0.72,0.54-0.72,0.99v13.95c0,1.17-0.45,1.62-1.71,1.62h-7.11c-1.08,0-1.62-0.54-1.62-1.62V88.39
				c-0.09-0.9-2.16-4.32-2.16-6.3c0-1.62,1.71-2.07,2.16-2.34V38.63c0-1.08,0.54-1.62,1.62-1.62h7.11c1.26,0,1.71,0.45,1.71,1.62
				V76.96z M172.42,78.58c2.43-2.79,4.59-6.03,6.75-10.08c4.77-8.73,8.1-19.35,8.91-27.27c0-0.27-0.18-0.45-0.45-0.54l-1.35-0.36
				c-0.27,0-0.45,0.18-0.45,0.45c-0.81,7.65-4.05,18.18-8.64,26.64c-4.5,8.28-8.46,13.14-15.21,17.19V41.15
				c0-0.27-0.18-0.45-0.45-0.45h-1.35c-0.27,0-0.45,0.18-0.45,0.45v59.4c0,0.18,0.18,0.45,0.45,0.45h1.35
				c0.27,0,0.45-0.27,0.45-0.45V87.22c3.69-2.07,6.3-4.32,8.91-7.02l15.12,20.61c0.18,0.18,0.45,0.18,0.72,0.18h1.44
				c0.18,0,0.36-0.18,0.36-0.36c0-0.09-0.09-0.27-0.18-0.36L172.42,78.58z"/>
			<path class="st0" d="M198.16,71.02c0-16.47,3.96-34.74,20.34-34.74c16.47,0,20.43,18.36,20.43,34.74
				c0,16.29-4.14,34.47-20.43,34.47S198.16,87.31,198.16,71.02z M234.88,70.66c0-27-10.26-30.96-16.47-30.96
				c-6.12,0-16.47,4.32-16.47,31.32s10.35,30.69,16.47,30.69C224.62,101.71,234.88,97.66,234.88,70.66z M232.63,70.66
				c0,18.54-5.04,28.8-14.22,28.8c-9.09,0-14.22-9.9-14.22-28.44c0-18.54,5.13-29.07,14.22-29.07
				C227.59,41.96,232.63,52.12,232.63,70.66z M208.6,71.11c0,22.32,5.67,24.93,9.9,24.93c9.27,0,9.99-15.57,9.99-24.93
				c0-9.27-0.72-25.38-9.99-25.38C209.32,45.74,208.6,61.75,208.6,71.11z"/>
			<path class="st0" d="M245.05,76.15c-1.17,0-1.89-1.17-1.89-4.41c0-3.06,0.81-4.32,1.98-4.32h27.63c1.17,0,1.98,1.26,1.98,4.32
				c0,3.24-0.72,4.41-1.89,4.41H245.05z M270.79,71.11c0-0.09,0-0.27-0.09-0.36c-0.09-0.09-0.18-0.18-0.36-0.18h-23.4
				c-0.18,0-0.36,0.18-0.36,0.36v1.35c-0.09,0.18,0,0.27,0.09,0.36c0.09,0.09,0.18,0.18,0.36,0.18h23.31c0.27,0,0.45-0.18,0.45-0.36
				V71.11z"/>
			<path class="st0" d="M284.29,104.77c-1.53,0-2.52-0.9-2.52-2.34v-63c0-1.44,0.99-2.43,2.52-2.43h7.83
				c18.72,0,28.44,14.49,28.44,33.57c0,18.54-10.08,34.2-29.61,34.2H284.29z M289.87,101.08c18.72,0,26.37-14.22,26.37-30.6
				c0-18.09-9.54-29.88-27.27-29.88c-2.25,0-3.33,0.54-3.33,1.89v55.44C285.64,100.45,286.45,101.08,289.87,101.08z M287.89,97.57
				V44.57c0-1.08,0.45-1.71,1.53-1.71c15.39,0,24.57,10.53,24.57,27.63c0,15.66-7.29,28.35-24.75,28.35
				C288.16,98.83,287.89,98.65,287.89,97.57z M310.12,70.57c0-15.03-8.19-24.12-17.01-24.12c-0.63,0-0.9,0.36-0.9,1.26v46.35
				c0,0.9,0.27,1.26,0.9,1.26C305.35,95.23,310.12,82.54,310.12,70.57z"/>
			<path class="st0" d="M325.96,71.02c0-16.47,3.96-34.74,20.34-34.74c16.47,0,20.43,18.36,20.43,34.74
				c0,16.29-4.14,34.47-20.43,34.47S325.96,87.31,325.96,71.02z M362.68,70.66c0-27-10.26-30.96-16.47-30.96
				c-6.12,0-16.47,4.32-16.47,31.32s10.35,30.69,16.47,30.69C352.42,101.71,362.68,97.66,362.68,70.66z M360.43,70.66
				c0,18.54-5.04,28.8-14.22,28.8c-9.09,0-14.22-9.9-14.22-28.44c0-18.54,5.13-29.07,14.22-29.07
				C355.39,41.96,360.43,52.12,360.43,70.66z M336.4,71.11c0,22.32,5.67,24.93,9.9,24.93c9.27,0,9.99-15.57,9.99-24.93
				c0-9.27-0.72-25.38-9.99-25.38C337.12,45.74,336.4,61.75,336.4,71.11z"/>
		</g>
		<g>
			<path d="M29.86,76.96c5.58-4.41,15.48-23.49,16.11-38.52c0.09-1.44,0.81-2.25,2.07-2.25c1.89,0,7.92,1.26,7.92,3.51
				c0,11.7-8.01,28.89-14.22,39.15l14.22,19.62c1.35,1.89,2.16,2.7,2.16,4.05c0,1.08-0.99,2.25-2.61,2.25h-5.85
				c-1.17,0-2.52-0.45-3.42-1.8c-1.26-1.89-10.8-13.95-12.33-16.29c-0.18-0.27-0.54-0.27-0.81-0.09l-2.52,1.62
				c-0.45,0.27-0.72,0.54-0.72,0.99v13.95c0,1.17-0.45,1.62-1.71,1.62h-7.11c-1.08,0-1.62-0.54-1.62-1.62V88.39
				c-0.09-0.9-2.16-4.32-2.16-6.3c0-1.62,1.71-2.07,2.16-2.34V38.63c0-1.08,0.54-1.62,1.62-1.62h7.11c1.26,0,1.71,0.45,1.71,1.62
				V76.96z M36.07,78.58c2.43-2.79,4.59-6.03,6.75-10.08c4.77-8.73,8.1-19.35,8.91-27.27c0-0.27-0.18-0.45-0.45-0.54l-1.35-0.36
				c-0.27,0-0.45,0.18-0.45,0.45c-0.81,7.65-4.05,18.18-8.64,26.64c-4.5,8.28-8.46,13.14-15.21,17.19V41.15
				c0-0.27-0.18-0.45-0.45-0.45h-1.35c-0.27,0-0.45,0.18-0.45,0.45v59.4c0,0.18,0.18,0.45,0.45,0.45h1.35
				c0.27,0,0.45-0.27,0.45-0.45V87.22c3.69-2.07,6.3-4.32,8.91-7.02l15.12,20.61c0.18,0.18,0.45,0.18,0.72,0.18h1.44
				c0.18,0,0.36-0.18,0.36-0.36c0-0.09-0.09-0.27-0.18-0.36L36.07,78.58z"/>
			<path d="M63.88,83.35c-1.08-1.8-2.97-3.42-2.97-5.49c0-1.53,1.08-2.25,1.98-2.79c0.09-0.09,0.18-0.18,0.18-0.63
				c0-17.37,4.23-38.25,21.69-38.25c8.1,0,13.68,6.75,13.68,14.58c0,1.89-4.95,5.13-7.56,5.13c-1.17,0-2.25-0.72-2.25-2.34
				c0-4.14-1.62-7.92-4.59-7.92c-8.64,0-10.53,18.81-10.53,27.63c0,0.54,0.36,0.9,1.08,0.9h12.24c2.43,0,2.61,1.62,2.61,2.16
				c0,1.8-3.96,7.29-5.49,7.29h-8.91c-0.36,0-0.45,0.27-0.45,0.72c0,4.86,3.51,11.79,8.73,11.79c3.96,0,5.49-3.33,6.66-5.85
				c0.9-1.71,1.44-3.06,2.79-3.06c1.98,0,6.39,2.43,6.39,4.68c0,2.97-5.22,13.68-15.39,13.68C71.71,105.58,65.86,95.5,63.88,83.35z
				 M84.94,79.75c0.27,0,0.45-0.18,0.45-0.45v-1.35c0-0.27-0.18-0.45-0.45-0.45H69.46c0,0-0.18-2.25-0.18-4.23
				c0-14.58,5.58-31.32,15.12-31.32c4.77,0,7.83,4.95,8.01,9.72c0,0.27,0.18,0.45,0.45,0.45l1.35-0.54
				c0.27-0.09,0.45-0.18,0.45-0.45c-0.18-6.12-4.23-11.43-10.26-11.43c-11.25,0-17.37,17.73-17.37,33.57
				c0,12.78,4.14,28.44,16.83,28.44c5.31,0,8.64-3.78,11.16-8.37c0.09-0.09,0.18-0.63-0.18-0.81l-1.17-0.63
				c-0.27-0.09-0.54,0-0.63,0.18c-2.07,3.87-4.86,7.38-9.18,7.38c-9.09,0-13.05-9.9-14.22-19.71H84.94z"/>
			<path d="M145.69,102.43c0,1.08-0.63,2.34-2.52,2.34h-2.97c-1.08,0-2.7-0.45-3.42-1.89l-20.7-40.32
				c-0.09-0.18-0.18-0.27-0.27-0.27c-0.18,0-0.18,0.18-0.18,0.36v40.5c0,1.17-0.45,1.62-1.71,1.62h-6.39
				c-1.08,0-1.62-0.54-1.62-1.62V39.44c0-1.44,0.99-2.43,2.52-2.43h2.97c1.44,0,2.88,0.72,3.51,1.98l20.61,40.41
				c0.09,0.18,0.27,0.18,0.27,0.18c0.18,0,0.18-0.18,0.18-0.45v-40.5c0-1.17,0.45-1.62,1.71-1.62h6.39c1.08,0,1.62,0.54,1.62,1.62
				V102.43z M110.14,41.06c-0.36,0-0.63,0.18-0.63,0.54v58.86c0,0.27,0.18,0.45,0.45,0.45h1.35c0.27,0,0.45-0.18,0.45-0.45V46.28
				l27.99,54.72c0,0,0.09,0.36,1.08,0.36c1.08,0,1.08-0.36,1.08-0.36V41.33c0-0.27-0.18-0.45-0.45-0.45h-1.35
				c-0.27,0-0.45,0.18-0.45,0.45v54.54l-27.9-54.45l-0.18-0.36H110.14z"/>
			<path d="M166.21,76.96c5.58-4.41,15.48-23.49,16.11-38.52c0.09-1.44,0.81-2.25,2.07-2.25c1.89,0,7.92,1.26,7.92,3.51
				c0,11.7-8.01,28.89-14.22,39.15l14.22,19.62c1.35,1.89,2.16,2.7,2.16,4.05c0,1.08-0.99,2.25-2.61,2.25h-5.85
				c-1.17,0-2.52-0.45-3.42-1.8c-1.26-1.89-10.8-13.95-12.33-16.29c-0.18-0.27-0.54-0.27-0.81-0.09l-2.52,1.62
				c-0.45,0.27-0.72,0.54-0.72,0.99v13.95c0,1.17-0.45,1.62-1.71,1.62h-7.11c-1.08,0-1.62-0.54-1.62-1.62V88.39
				c-0.09-0.9-2.16-4.32-2.16-6.3c0-1.62,1.71-2.07,2.16-2.34V38.63c0-1.08,0.54-1.62,1.62-1.62h7.11c1.26,0,1.71,0.45,1.71,1.62
				V76.96z M172.42,78.58c2.43-2.79,4.59-6.03,6.75-10.08c4.77-8.73,8.1-19.35,8.91-27.27c0-0.27-0.18-0.45-0.45-0.54l-1.35-0.36
				c-0.27,0-0.45,0.18-0.45,0.45c-0.81,7.65-4.05,18.18-8.64,26.64c-4.5,8.28-8.46,13.14-15.21,17.19V41.15
				c0-0.27-0.18-0.45-0.45-0.45h-1.35c-0.27,0-0.45,0.18-0.45,0.45v59.4c0,0.18,0.18,0.45,0.45,0.45h1.35
				c0.27,0,0.45-0.27,0.45-0.45V87.22c3.69-2.07,6.3-4.32,8.91-7.02l15.12,20.61c0.18,0.18,0.45,0.18,0.72,0.18h1.44
				c0.18,0,0.36-0.18,0.36-0.36c0-0.09-0.09-0.27-0.18-0.36L172.42,78.58z"/>
			<path d="M198.16,71.02c0-16.47,3.96-34.74,20.34-34.74c16.47,0,20.43,18.36,20.43,34.74c0,16.29-4.14,34.47-20.43,34.47
				S198.16,87.31,198.16,71.02z M234.88,70.66c0-27-10.26-30.96-16.47-30.96c-6.12,0-16.47,4.32-16.47,31.32
				s10.35,30.69,16.47,30.69C224.62,101.71,234.88,97.66,234.88,70.66z M232.63,70.66c0,18.54-5.04,28.8-14.22,28.8
				c-9.09,0-14.22-9.9-14.22-28.44c0-18.54,5.13-29.07,14.22-29.07C227.59,41.96,232.63,52.12,232.63,70.66z M208.6,71.11
				c0,22.32,5.67,24.93,9.9,24.93c9.27,0,9.99-15.57,9.99-24.93c0-9.27-0.72-25.38-9.99-25.38C209.32,45.74,208.6,61.75,208.6,71.11
				z"/>
			<path d="M245.05,76.15c-1.17,0-1.89-1.17-1.89-4.41c0-3.06,0.81-4.32,1.98-4.32h27.63c1.17,0,1.98,1.26,1.98,4.32
				c0,3.24-0.72,4.41-1.89,4.41H245.05z M270.79,71.11c0-0.09,0-0.27-0.09-0.36c-0.09-0.09-0.18-0.18-0.36-0.18h-23.4
				c-0.18,0-0.36,0.18-0.36,0.36v1.35c-0.09,0.18,0,0.27,0.09,0.36c0.09,0.09,0.18,0.18,0.36,0.18h23.31c0.27,0,0.45-0.18,0.45-0.36
				V71.11z"/>
			<path d="M284.29,104.77c-1.53,0-2.52-0.9-2.52-2.34v-63c0-1.44,0.99-2.43,2.52-2.43h7.83c18.72,0,28.44,14.49,28.44,33.57
				c0,18.54-10.08,34.2-29.61,34.2H284.29z M289.87,101.08c18.72,0,26.37-14.22,26.37-30.6c0-18.09-9.54-29.88-27.27-29.88
				c-2.25,0-3.33,0.54-3.33,1.89v55.44C285.64,100.45,286.45,101.08,289.87,101.08z M287.89,97.57V44.57c0-1.08,0.45-1.71,1.53-1.71
				c15.39,0,24.57,10.53,24.57,27.63c0,15.66-7.29,28.35-24.75,28.35C288.16,98.83,287.89,98.65,287.89,97.57z M310.12,70.57
				c0-15.03-8.19-24.12-17.01-24.12c-0.63,0-0.9,0.36-0.9,1.26v46.35c0,0.9,0.27,1.26,0.9,1.26
				C305.35,95.23,310.12,82.54,310.12,70.57z"/>
			<path d="M325.96,71.02c0-16.47,3.96-34.74,20.34-34.74c16.47,0,20.43,18.36,20.43,34.74c0,16.29-4.14,34.47-20.43,34.47
				S325.96,87.31,325.96,71.02z M362.68,70.66c0-27-10.26-30.96-16.47-30.96c-6.12,0-16.47,4.32-16.47,31.32
				s10.35,30.69,16.47,30.69C352.42,101.71,362.68,97.66,362.68,70.66z M360.43,70.66c0,18.54-5.04,28.8-14.22,28.8
				c-9.09,0-14.22-9.9-14.22-28.44c0-18.54,5.13-29.07,14.22-29.07C355.39,41.96,360.43,52.12,360.43,70.66z M336.4,71.11
				c0,22.32,5.67,24.93,9.9,24.93c9.27,0,9.99-15.57,9.99-24.93c0-9.27-0.72-25.38-9.99-25.38C337.12,45.74,336.4,61.75,336.4,71.11
				z"/>
		</g>
	</g>
	<g>
		<g>
			<g>
				<path class="st1" d="M445.6,17.06c0.11-1.24-0.27-2.45-1.07-3.4c-1.11-1.32-2.84-1.93-4.64-1.55c-0.74,0.16-1.42,0.56-2,1.04
					l-17.66,14.82c-1.04,0.87-1.84,2.01-2.3,3.29l-6.49,17.83c-1.04,0.19-2.07,0.54-3.02,1.1c-1.93,1.14-4.27,1.22-6.19,0.05
					c-2.89-1.75-6.49-1.75-9.38-0.02c-0.74,0.44-0.97,1.39-0.53,2.13c0.44,0.74,1.39,0.97,2.13,0.53c1.9-1.14,4.26-1.14,6.16,0
					c2.92,1.75,6.56,1.73,9.47-0.07c0.01,0.01,0,0,0.01,0.01l-16.53,45.4c-0.29,0.81,0.12,1.7,0.93,1.99
					c0.8,0.29,1.7-0.12,1.99-0.93l17.18-47.21c0.86,0.09,1.7,0.35,2.46,0.81l0.44,0.27l-17.18,47.19c-0.22,0.59-0.04,1.23,0.38,1.64
					h-8.45c-0.86,0-1.55,0.69-1.55,1.55c0,0.86,0.7,1.55,1.55,1.55h31.03c0.82,0,1.49-0.63,1.55-1.45l4.65-68.27
					c0.05-0.65-0.32-1.23-0.87-1.5l16.28-13.66C444.9,19.42,445.49,18.3,445.6,17.06z M424.28,52.34h-1.4
					c-0.87,0-1.73-0.2-2.52-0.56l4.86-13.36L424.28,52.34z M420.89,101.99H401.9c0.17-0.16,0.31-0.35,0.4-0.58l17-46.71
					c1.13,0.48,2.35,0.74,3.58,0.74h1.19L420.89,101.99z M441.96,17.42l-17.74,14.89c-0.21,0.17-0.37,0.4-0.46,0.66l-6.12,16.81
					c-0.92-0.54-1.9-0.89-2.91-1.08l6.11-16.79c0.28-0.77,0.76-1.45,1.38-1.97l17.74-14.89c0.32-0.27,0.73-0.39,1.13-0.36
					c0.41,0.04,0.79,0.23,1.05,0.55c0.27,0.32,0.39,0.72,0.36,1.13C442.47,16.78,442.28,17.16,441.96,17.42z"/>
				<path class="st1" d="M378.6,73.93l1.34-6.68c0.43-2.16-0.9-4.26-3.03-4.79c-1.36-0.34-2.78,0.03-3.8,0.99
					c-1.02,0.96-1.48,2.35-1.23,3.73l0.14,0.76c-1.15-0.4-2.43-0.46-3.68-0.11l-4.48,1.26c-0.4,0.11-0.73,0.38-0.93,0.74
					c-0.2,0.36-0.25,0.78-0.14,1.18c0.56,1.99,1.87,3.65,3.68,4.66c0.72,0.4,1.48,0.67,2.26,0.83c-4.14,2.79-6.88,7.52-6.88,12.88
					c0,3.09,0.9,6.07,2.62,8.63c0.48,0.71,1.44,0.9,2.15,0.43c0.71-0.48,0.9-1.44,0.43-2.15c-1.37-2.04-2.09-4.43-2.09-6.9
					c0-6.12,4.46-11.21,10.3-12.22c0,0,0,0,0.01,0c0.5-0.09,1.02-0.14,1.54-0.16c0,0,0.01,0,0.01,0c0.18-0.01,0.36-0.03,0.55-0.03
					c6.84,0,12.41,5.57,12.41,12.41c0,6.84-5.57,12.41-12.41,12.41c-2.07,0-4.12-0.52-5.92-1.5c-0.75-0.41-1.69-0.13-2.1,0.62
					c-0.41,0.75-0.13,1.69,0.62,2.1c2.26,1.23,4.81,1.88,7.4,1.88c8.56,0,15.52-6.96,15.52-15.52
					C392.86,81.25,386.57,74.58,378.6,73.93z M375.23,65.49c0.1-0.09,0.34-0.27,0.68-0.27c0.08,0,0.16,0.01,0.25,0.03
					c0.52,0.13,0.85,0.64,0.74,1.17l-1.03,5.16l-0.94-5.17C374.84,65.91,375.11,65.6,375.23,65.49z M366.43,71.37l2.73-0.77
					c0.8-0.22,1.64-0.13,2.36,0.28c0.62,0.34,1.07,0.88,1.34,1.53l0.07,0.36l-1.43,0.4c-1.2,0.34-2.45,0.19-3.54-0.42
					C367.35,72.4,366.83,71.93,366.43,71.37z"/>
				<circle class="st1" cx="375.79" cy="96.91" r="1.55"/>
				<circle class="st1" cx="372.69" cy="92.26" r="1.55"/>
				<circle class="st1" cx="378.9" cy="92.26" r="1.55"/>
				<path class="st1" d="M386.04,73.27c0.04,0,0.07,0,0.11,0c0.85-0.06,1.5-0.8,1.44-1.65l-1.1-16.17h1.19
					c0.86,0,1.55-0.69,1.55-1.55s-0.7-1.55-1.55-1.55h-1.4l-1.06-15.52h26.14c0.86,0,1.55-0.69,1.55-1.55c0-0.86-0.7-1.55-1.55-1.55
					h-27.8c-0.43,0-0.84,0.18-1.13,0.49c-0.29,0.31-0.44,0.74-0.41,1.17l2.49,36.45C384.55,72.65,385.23,73.27,386.04,73.27z"/>
				<path class="st1" d="M416.14,92.26c-0.86,0-1.55,0.69-1.55,1.55c0,0.86-0.7,1.55-1.55,1.55c-0.85,0-1.55-0.7-1.55-1.55
					c0-0.86,0.7-1.55,1.55-1.55c0.86,0,1.55-0.69,1.55-1.55c0-0.86-0.7-1.55-1.55-1.55c-2.57,0-4.65,2.09-4.65,4.65
					s2.09,4.65,4.65,4.65c2.57,0,4.65-2.09,4.65-4.65C417.69,92.95,416.99,92.26,416.14,92.26z"/>
				<path class="st1" d="M399.07,67.43c0-2.57-2.09-4.65-4.65-4.65s-4.65,2.09-4.65,4.65s2.09,4.65,4.65,4.65
					S399.07,70,399.07,67.43z M394.41,68.99c-0.85,0-1.55-0.7-1.55-1.55s0.7-1.55,1.55-1.55c0.85,0,1.55,0.7,1.55,1.55
					S395.27,68.99,394.41,68.99z"/>
				<circle class="st1" cx="400.62" cy="59.68" r="1.55"/>
				<circle class="st1" cx="416.14" cy="84.5" r="1.55"/>
				<circle class="st1" cx="395.97" cy="79.85" r="1.55"/>
				<circle class="st1" cx="417.69" cy="73.64" r="1.55"/>
			</g>
		</g>
		<g>
			<g>
				<path d="M445.6,17.06c0.11-1.24-0.27-2.45-1.07-3.4c-1.11-1.32-2.84-1.93-4.64-1.55c-0.74,0.16-1.42,0.56-2,1.04l-17.66,14.82
					c-1.04,0.87-1.84,2.01-2.3,3.29l-6.49,17.83c-1.04,0.19-2.07,0.54-3.02,1.1c-1.93,1.14-4.27,1.22-6.19,0.05
					c-2.89-1.75-6.49-1.75-9.38-0.02c-0.74,0.44-0.97,1.39-0.53,2.13c0.44,0.74,1.39,0.97,2.13,0.53c1.9-1.14,4.26-1.14,6.16,0
					c2.92,1.75,6.56,1.73,9.47-0.07c0.01,0.01,0,0,0.01,0.01l-16.53,45.4c-0.29,0.81,0.12,1.7,0.93,1.99
					c0.8,0.29,1.7-0.12,1.99-0.93l17.18-47.21c0.86,0.09,1.7,0.35,2.46,0.81l0.44,0.27l-17.18,47.19c-0.22,0.59-0.04,1.23,0.38,1.64
					h-8.45c-0.86,0-1.55,0.69-1.55,1.55c0,0.86,0.7,1.55,1.55,1.55h31.03c0.82,0,1.49-0.63,1.55-1.45l4.65-68.27
					c0.05-0.65-0.32-1.23-0.87-1.5l16.28-13.66C444.9,19.42,445.49,18.3,445.6,17.06z M424.28,52.34h-1.4
					c-0.87,0-1.73-0.2-2.52-0.56l4.86-13.36L424.28,52.34z M420.89,101.99H401.9c0.17-0.16,0.31-0.35,0.4-0.58l17-46.71
					c1.13,0.48,2.35,0.74,3.58,0.74h1.19L420.89,101.99z M441.96,17.42l-17.74,14.89c-0.21,0.17-0.37,0.4-0.46,0.66l-6.12,16.81
					c-0.92-0.54-1.9-0.89-2.91-1.08l6.11-16.79c0.28-0.77,0.76-1.45,1.38-1.97l17.74-14.89c0.32-0.27,0.73-0.39,1.13-0.36
					c0.41,0.04,0.79,0.23,1.05,0.55c0.27,0.32,0.39,0.72,0.36,1.13C442.47,16.78,442.28,17.16,441.96,17.42z"/>
				<path d="M378.6,73.93l1.34-6.68c0.43-2.16-0.9-4.26-3.03-4.79c-1.36-0.34-2.78,0.03-3.8,0.99c-1.02,0.96-1.48,2.35-1.23,3.73
					l0.14,0.76c-1.15-0.4-2.43-0.46-3.68-0.11l-4.48,1.26c-0.4,0.11-0.73,0.38-0.93,0.74c-0.2,0.36-0.25,0.78-0.14,1.18
					c0.56,1.99,1.87,3.65,3.68,4.66c0.72,0.4,1.48,0.67,2.26,0.83c-4.14,2.79-6.88,7.52-6.88,12.88c0,3.09,0.9,6.07,2.62,8.63
					c0.48,0.71,1.44,0.9,2.15,0.43c0.71-0.48,0.9-1.44,0.43-2.15c-1.37-2.04-2.09-4.43-2.09-6.9c0-6.12,4.46-11.21,10.3-12.22
					c0,0,0,0,0.01,0c0.5-0.09,1.02-0.14,1.54-0.16c0,0,0.01,0,0.01,0c0.18-0.01,0.36-0.03,0.55-0.03c6.84,0,12.41,5.57,12.41,12.41
					c0,6.84-5.57,12.41-12.41,12.41c-2.07,0-4.12-0.52-5.92-1.5c-0.75-0.41-1.69-0.13-2.1,0.62c-0.41,0.75-0.13,1.69,0.62,2.1
					c2.26,1.23,4.81,1.88,7.4,1.88c8.56,0,15.52-6.96,15.52-15.52C392.86,81.25,386.57,74.58,378.6,73.93z M375.23,65.49
					c0.1-0.09,0.34-0.27,0.68-0.27c0.08,0,0.16,0.01,0.25,0.03c0.52,0.13,0.85,0.64,0.74,1.17l-1.03,5.16l-0.94-5.17
					C374.84,65.91,375.11,65.6,375.23,65.49z M366.43,71.37l2.73-0.77c0.8-0.22,1.64-0.13,2.36,0.28c0.62,0.34,1.07,0.88,1.34,1.53
					l0.07,0.36l-1.43,0.4c-1.2,0.34-2.45,0.19-3.54-0.42C367.35,72.4,366.83,71.93,366.43,71.37z"/>
				<circle cx="375.79" cy="96.91" r="1.55"/>
				<circle cx="372.69" cy="92.26" r="1.55"/>
				<circle cx="378.9" cy="92.26" r="1.55"/>
				<path d="M386.04,73.27c0.04,0,0.07,0,0.11,0c0.85-0.06,1.5-0.8,1.44-1.65l-1.1-16.17h1.19c0.86,0,1.55-0.69,1.55-1.55
					s-0.7-1.55-1.55-1.55h-1.4l-1.06-15.52h26.14c0.86,0,1.55-0.69,1.55-1.55c0-0.86-0.7-1.55-1.55-1.55h-27.8
					c-0.43,0-0.84,0.18-1.13,0.49c-0.29,0.31-0.44,0.74-0.41,1.17l2.49,36.45C384.55,72.65,385.23,73.27,386.04,73.27z"/>
				<path d="M416.14,92.26c-0.86,0-1.55,0.69-1.55,1.55c0,0.86-0.7,1.55-1.55,1.55c-0.85,0-1.55-0.7-1.55-1.55
					c0-0.86,0.7-1.55,1.55-1.55c0.86,0,1.55-0.69,1.55-1.55c0-0.86-0.7-1.55-1.55-1.55c-2.57,0-4.65,2.09-4.65,4.65
					s2.09,4.65,4.65,4.65c2.57,0,4.65-2.09,4.65-4.65C417.69,92.95,416.99,92.26,416.14,92.26z"/>
				<path d="M399.07,67.43c0-2.57-2.09-4.65-4.65-4.65s-4.65,2.09-4.65,4.65s2.09,4.65,4.65,4.65S399.07,70,399.07,67.43z
					 M394.41,68.99c-0.85,0-1.55-0.7-1.55-1.55s0.7-1.55,1.55-1.55c0.85,0,1.55,0.7,1.55,1.55S395.27,68.99,394.41,68.99z"/>
				<circle cx="400.62" cy="59.68" r="1.55"/>
				<circle cx="416.14" cy="84.5" r="1.55"/>
				<circle cx="395.97" cy="79.85" r="1.55"/>
				<circle cx="417.69" cy="73.64" r="1.55"/>
			</g>
		</g>
		<g>
			<g>
				<path d="M445.6,17.06c0.11-1.24-0.27-2.45-1.07-3.4c-1.11-1.32-2.84-1.93-4.64-1.55c-0.74,0.16-1.42,0.56-2,1.04l-17.66,14.82
					c-1.04,0.87-1.84,2.01-2.3,3.29l-6.49,17.83c-1.04,0.19-2.07,0.54-3.02,1.1c-1.93,1.14-4.27,1.22-6.19,0.05
					c-2.89-1.75-6.49-1.75-9.38-0.02c-0.74,0.44-0.97,1.39-0.53,2.13c0.44,0.74,1.39,0.97,2.13,0.53c1.9-1.14,4.26-1.14,6.16,0
					c2.92,1.75,6.56,1.73,9.47-0.07c0.01,0.01,0,0,0.01,0.01l-16.53,45.4c-0.29,0.81,0.12,1.7,0.93,1.99
					c0.8,0.29,1.7-0.12,1.99-0.93l17.18-47.21c0.86,0.09,1.7,0.35,2.46,0.81l0.44,0.27l-17.18,47.19c-0.22,0.59-0.04,1.23,0.38,1.64
					h-8.45c-0.86,0-1.55,0.69-1.55,1.55c0,0.86,0.7,1.55,1.55,1.55h31.03c0.82,0,1.49-0.63,1.55-1.45l4.65-68.27
					c0.05-0.65-0.32-1.23-0.87-1.5l16.28-13.66C444.9,19.42,445.49,18.3,445.6,17.06z M424.28,52.34h-1.4
					c-0.87,0-1.73-0.2-2.52-0.56l4.86-13.36L424.28,52.34z M420.89,101.99H401.9c0.17-0.16,0.31-0.35,0.4-0.58l17-46.71
					c1.13,0.48,2.35,0.74,3.58,0.74h1.19L420.89,101.99z M441.96,17.42l-17.74,14.89c-0.21,0.17-0.37,0.4-0.46,0.66l-6.12,16.81
					c-0.92-0.54-1.9-0.89-2.91-1.08l6.11-16.79c0.28-0.77,0.76-1.45,1.38-1.97l17.74-14.89c0.32-0.27,0.73-0.39,1.13-0.36
					c0.41,0.04,0.79,0.23,1.05,0.55c0.27,0.32,0.39,0.72,0.36,1.13C442.47,16.78,442.28,17.16,441.96,17.42z"/>
				<path d="M378.6,73.93l1.34-6.68c0.43-2.16-0.9-4.26-3.03-4.79c-1.36-0.34-2.78,0.03-3.8,0.99c-1.02,0.96-1.48,2.35-1.23,3.73
					l0.14,0.76c-1.15-0.4-2.43-0.46-3.68-0.11l-4.48,1.26c-0.4,0.11-0.73,0.38-0.93,0.74c-0.2,0.36-0.25,0.78-0.14,1.18
					c0.56,1.99,1.87,3.65,3.68,4.66c0.72,0.4,1.48,0.67,2.26,0.83c-4.14,2.79-6.88,7.52-6.88,12.88c0,3.09,0.9,6.07,2.62,8.63
					c0.48,0.71,1.44,0.9,2.15,0.43c0.71-0.48,0.9-1.44,0.43-2.15c-1.37-2.04-2.09-4.43-2.09-6.9c0-6.12,4.46-11.21,10.3-12.22
					c0,0,0,0,0.01,0c0.5-0.09,1.02-0.14,1.54-0.16c0,0,0.01,0,0.01,0c0.18-0.01,0.36-0.03,0.55-0.03c6.84,0,12.41,5.57,12.41,12.41
					c0,6.84-5.57,12.41-12.41,12.41c-2.07,0-4.12-0.52-5.92-1.5c-0.75-0.41-1.69-0.13-2.1,0.62c-0.41,0.75-0.13,1.69,0.62,2.1
					c2.26,1.23,4.81,1.88,7.4,1.88c8.56,0,15.52-6.96,15.52-15.52C392.86,81.25,386.57,74.58,378.6,73.93z M375.23,65.49
					c0.1-0.09,0.34-0.27,0.68-0.27c0.08,0,0.16,0.01,0.25,0.03c0.52,0.13,0.85,0.64,0.74,1.17l-1.03,5.16l-0.94-5.17
					C374.84,65.91,375.11,65.6,375.23,65.49z M366.43,71.37l2.73-0.77c0.8-0.22,1.64-0.13,2.36,0.28c0.62,0.34,1.07,0.88,1.34,1.53
					l0.07,0.36l-1.43,0.4c-1.2,0.34-2.45,0.19-3.54-0.42C367.35,72.4,366.83,71.93,366.43,71.37z"/>
				<circle cx="375.79" cy="96.91" r="1.55"/>
				<circle cx="372.69" cy="92.26" r="1.55"/>
				<circle cx="378.9" cy="92.26" r="1.55"/>
				<path d="M386.04,73.27c0.04,0,0.07,0,0.11,0c0.85-0.06,1.5-0.8,1.44-1.65l-1.1-16.17h1.19c0.86,0,1.55-0.69,1.55-1.55
					s-0.7-1.55-1.55-1.55h-1.4l-1.06-15.52h26.14c0.86,0,1.55-0.69,1.55-1.55c0-0.86-0.7-1.55-1.55-1.55h-27.8
					c-0.43,0-0.84,0.18-1.13,0.49c-0.29,0.31-0.44,0.74-0.41,1.17l2.49,36.45C384.55,72.65,385.23,73.27,386.04,73.27z"/>
				<path d="M416.14,92.26c-0.86,0-1.55,0.69-1.55,1.55c0,0.86-0.7,1.55-1.55,1.55c-0.85,0-1.55-0.7-1.55-1.55
					c0-0.86,0.7-1.55,1.55-1.55c0.86,0,1.55-0.69,1.55-1.55c0-0.86-0.7-1.55-1.55-1.55c-2.57,0-4.65,2.09-4.65,4.65
					s2.09,4.65,4.65,4.65c2.57,0,4.65-2.09,4.65-4.65C417.69,92.95,416.99,92.26,416.14,92.26z"/>
				<path d="M399.07,67.43c0-2.57-2.09-4.65-4.65-4.65s-4.65,2.09-4.65,4.65s2.09,4.65,4.65,4.65S399.07,70,399.07,67.43z
					 M394.41,68.99c-0.85,0-1.55-0.7-1.55-1.55s0.7-1.55,1.55-1.55c0.85,0,1.55,0.7,1.55,1.55S395.27,68.99,394.41,68.99z"/>
				<circle cx="400.62" cy="59.68" r="1.55"/>
				<circle cx="416.14" cy="84.5" r="1.55"/>
				<circle cx="395.97" cy="79.85" r="1.55"/>
				<circle cx="417.69" cy="73.64" r="1.55"/>
			</g>
		</g>
	</g>
</g>
</svg>
